<mxfile host="app.diagrams.net" agent="Mozilla/5.0 (Windows NT 10.0; Win64; x64) AppleWebKit/537.36 (KHTML, like Gecko) Chrome/132.0.0.0 YaBrowser/25.2.0.0 Safari/537.36" version="26.2.13">
  <diagram name="Page-1" id="c37626ed-c26b-45fb-9056-f9ebc6bb27b6">
    <mxGraphModel dx="1113" dy="484" grid="1" gridSize="10" guides="1" tooltips="1" connect="1" arrows="1" fold="1" page="1" pageScale="1" pageWidth="1100" pageHeight="850" background="none" math="0" shadow="0">
      <root>
        <mxCell id="0" />
        <mxCell id="1" parent="0" />
        <mxCell id="QjlA99lCkYBHLG3m_KXI-69" value="" style="ellipse;whiteSpace=wrap;html=1;fillColor=#FDF4FF;" vertex="1" parent="1">
          <mxGeometry x="30" y="195" width="960" height="305" as="geometry" />
        </mxCell>
        <mxCell id="QjlA99lCkYBHLG3m_KXI-65" value="" style="ellipse;whiteSpace=wrap;html=1;rotation=15;fillColor=#FDF4FF;" vertex="1" parent="1">
          <mxGeometry x="477" y="384" width="46" height="10" as="geometry" />
        </mxCell>
        <mxCell id="QjlA99lCkYBHLG3m_KXI-64" value="" style="ellipse;whiteSpace=wrap;html=1;rotation=-165;fillColor=#FDF4FF;" vertex="1" parent="1">
          <mxGeometry x="290" y="384" width="46" height="10" as="geometry" />
        </mxCell>
        <mxCell id="QjlA99lCkYBHLG3m_KXI-59" value="" style="ellipse;whiteSpace=wrap;html=1;rotation=15;fillColor=#FDF4FF;" vertex="1" parent="1">
          <mxGeometry x="182.00000000000003" y="384" width="46" height="10" as="geometry" />
        </mxCell>
        <mxCell id="QjlA99lCkYBHLG3m_KXI-40" style="edgeStyle=none;rounded=0;orthogonalLoop=1;jettySize=auto;html=1;exitX=0;exitY=0.98;exitDx=0;exitDy=0;exitPerimeter=0;shape=link;" edge="1" parent="1">
          <mxGeometry relative="1" as="geometry">
            <mxPoint x="248.23999999999978" y="354.20000000000005" as="sourcePoint" />
            <mxPoint x="169.99537938844833" y="420" as="targetPoint" />
          </mxGeometry>
        </mxCell>
        <mxCell id="1c7a67bf8fd3230f-46" value="" style="shape=mxgraph.cisco.routers.router;html=1;dashed=0;fillColor=#036897;strokeColor=#ffffff;strokeWidth=2;verticalLabelPosition=bottom;verticalAlign=top;rounded=0;shadow=0;comic=0;fontFamily=Verdana;fontSize=12;" parent="1" vertex="1">
          <mxGeometry x="351" y="90" width="78" height="53" as="geometry" />
        </mxCell>
        <mxCell id="1c7a67bf8fd3230f-47" value="" style="shape=mxgraph.cisco.routers.router;html=1;dashed=0;fillColor=#036897;strokeColor=#ffffff;strokeWidth=2;verticalLabelPosition=bottom;verticalAlign=top;rounded=0;shadow=0;comic=0;fontFamily=Verdana;fontSize=12;" parent="1" vertex="1">
          <mxGeometry x="630" y="90" width="78" height="53" as="geometry" />
        </mxCell>
        <mxCell id="QjlA99lCkYBHLG3m_KXI-2" value="" style="shape=mxgraph.cisco.switches.workgroup_switch;sketch=0;html=1;pointerEvents=1;dashed=0;fillColor=#036897;strokeColor=#ffffff;strokeWidth=2;verticalLabelPosition=bottom;verticalAlign=top;align=center;outlineConnect=0;" vertex="1" parent="1">
          <mxGeometry x="340" y="210" width="101" height="50" as="geometry" />
        </mxCell>
        <mxCell id="QjlA99lCkYBHLG3m_KXI-3" value="" style="shape=mxgraph.cisco.switches.workgroup_switch;sketch=0;html=1;pointerEvents=1;dashed=0;fillColor=#036897;strokeColor=#ffffff;strokeWidth=2;verticalLabelPosition=bottom;verticalAlign=top;align=center;outlineConnect=0;" vertex="1" parent="1">
          <mxGeometry x="619" y="210" width="101" height="50" as="geometry" />
        </mxCell>
        <mxCell id="QjlA99lCkYBHLG3m_KXI-41" style="edgeStyle=none;rounded=0;orthogonalLoop=1;jettySize=auto;html=1;exitX=0.87;exitY=0.74;exitDx=0;exitDy=0;exitPerimeter=0;shape=link;" edge="1" parent="1" source="QjlA99lCkYBHLG3m_KXI-6" target="QjlA99lCkYBHLG3m_KXI-11">
          <mxGeometry relative="1" as="geometry" />
        </mxCell>
        <mxCell id="QjlA99lCkYBHLG3m_KXI-6" value="" style="shape=mxgraph.cisco.switches.workgroup_switch;sketch=0;html=1;pointerEvents=1;dashed=0;fillColor=#036897;strokeColor=#ffffff;strokeWidth=2;verticalLabelPosition=bottom;verticalAlign=top;align=center;outlineConnect=0;" vertex="1" parent="1">
          <mxGeometry x="230" y="320" width="80" height="40" as="geometry" />
        </mxCell>
        <mxCell id="QjlA99lCkYBHLG3m_KXI-42" style="edgeStyle=none;rounded=0;orthogonalLoop=1;jettySize=auto;html=1;exitX=0.87;exitY=0.74;exitDx=0;exitDy=0;exitPerimeter=0;shape=link;" edge="1" parent="1" source="QjlA99lCkYBHLG3m_KXI-7" target="QjlA99lCkYBHLG3m_KXI-12">
          <mxGeometry relative="1" as="geometry" />
        </mxCell>
        <mxCell id="QjlA99lCkYBHLG3m_KXI-7" value="" style="shape=mxgraph.cisco.switches.workgroup_switch;sketch=0;html=1;pointerEvents=1;dashed=0;fillColor=#036897;strokeColor=#ffffff;strokeWidth=2;verticalLabelPosition=bottom;verticalAlign=top;align=center;outlineConnect=0;" vertex="1" parent="1">
          <mxGeometry x="390" y="320" width="90" height="40" as="geometry" />
        </mxCell>
        <mxCell id="QjlA99lCkYBHLG3m_KXI-8" value="" style="shape=mxgraph.cisco.switches.workgroup_switch;sketch=0;html=1;pointerEvents=1;dashed=0;fillColor=#036897;strokeColor=#ffffff;strokeWidth=2;verticalLabelPosition=bottom;verticalAlign=top;align=center;outlineConnect=0;" vertex="1" parent="1">
          <mxGeometry x="560" y="320" width="90" height="40" as="geometry" />
        </mxCell>
        <mxCell id="QjlA99lCkYBHLG3m_KXI-9" value="" style="shape=mxgraph.cisco.switches.workgroup_switch;sketch=0;html=1;pointerEvents=1;dashed=0;fillColor=#036897;strokeColor=#ffffff;strokeWidth=2;verticalLabelPosition=bottom;verticalAlign=top;align=center;outlineConnect=0;" vertex="1" parent="1">
          <mxGeometry x="708" y="320" width="90" height="40" as="geometry" />
        </mxCell>
        <mxCell id="QjlA99lCkYBHLG3m_KXI-10" value="" style="shape=mxgraph.cisco.switches.workgroup_switch;sketch=0;html=1;pointerEvents=1;dashed=0;fillColor=#036897;strokeColor=#ffffff;strokeWidth=2;verticalLabelPosition=bottom;verticalAlign=top;align=center;outlineConnect=0;" vertex="1" parent="1">
          <mxGeometry x="86" y="420" width="90" height="45" as="geometry" />
        </mxCell>
        <mxCell id="QjlA99lCkYBHLG3m_KXI-11" value="" style="shape=mxgraph.cisco.switches.workgroup_switch;sketch=0;html=1;pointerEvents=1;dashed=0;fillColor=#036897;strokeColor=#ffffff;strokeWidth=2;verticalLabelPosition=bottom;verticalAlign=top;align=center;outlineConnect=0;" vertex="1" parent="1">
          <mxGeometry x="290" y="425" width="90" height="45" as="geometry" />
        </mxCell>
        <mxCell id="QjlA99lCkYBHLG3m_KXI-12" value="" style="shape=mxgraph.cisco.switches.workgroup_switch;sketch=0;html=1;pointerEvents=1;dashed=0;fillColor=#036897;strokeColor=#ffffff;strokeWidth=2;verticalLabelPosition=bottom;verticalAlign=top;align=center;outlineConnect=0;" vertex="1" parent="1">
          <mxGeometry x="505" y="425" width="90" height="45" as="geometry" />
        </mxCell>
        <mxCell id="QjlA99lCkYBHLG3m_KXI-15" value="" style="shape=mxgraph.cisco.servers.fileserver;sketch=0;html=1;pointerEvents=1;dashed=0;fillColor=#036897;strokeColor=#ffffff;strokeWidth=2;verticalLabelPosition=bottom;verticalAlign=top;align=center;outlineConnect=0;" vertex="1" parent="1">
          <mxGeometry x="681" y="510" width="43" height="62" as="geometry" />
        </mxCell>
        <mxCell id="QjlA99lCkYBHLG3m_KXI-16" value="" style="shape=mxgraph.cisco.servers.fileserver;sketch=0;html=1;pointerEvents=1;dashed=0;fillColor=#036897;strokeColor=#ffffff;strokeWidth=2;verticalLabelPosition=bottom;verticalAlign=top;align=center;outlineConnect=0;" vertex="1" parent="1">
          <mxGeometry x="798" y="490" width="43" height="62" as="geometry" />
        </mxCell>
        <mxCell id="QjlA99lCkYBHLG3m_KXI-18" value="" style="shape=mxgraph.cisco.servers.fileserver;sketch=0;html=1;pointerEvents=1;dashed=0;fillColor=#036897;strokeColor=#ffffff;strokeWidth=2;verticalLabelPosition=bottom;verticalAlign=top;align=center;outlineConnect=0;" vertex="1" parent="1">
          <mxGeometry x="920" y="450" width="43" height="62" as="geometry" />
        </mxCell>
        <mxCell id="QjlA99lCkYBHLG3m_KXI-19" value="" style="shape=mxgraph.cisco.computers_and_peripherals.pc;sketch=0;html=1;pointerEvents=1;dashed=0;fillColor=#036897;strokeColor=#ffffff;strokeWidth=2;verticalLabelPosition=bottom;verticalAlign=top;align=center;outlineConnect=0;" vertex="1" parent="1">
          <mxGeometry x="86" y="520" width="78" height="70" as="geometry" />
        </mxCell>
        <mxCell id="QjlA99lCkYBHLG3m_KXI-20" value="" style="shape=mxgraph.cisco.computers_and_peripherals.pc;sketch=0;html=1;pointerEvents=1;dashed=0;fillColor=#036897;strokeColor=#ffffff;strokeWidth=2;verticalLabelPosition=bottom;verticalAlign=top;align=center;outlineConnect=0;" vertex="1" parent="1">
          <mxGeometry x="296" y="520" width="78" height="70" as="geometry" />
        </mxCell>
        <mxCell id="QjlA99lCkYBHLG3m_KXI-21" value="" style="shape=mxgraph.cisco.computers_and_peripherals.pc;sketch=0;html=1;pointerEvents=1;dashed=0;fillColor=#036897;strokeColor=#ffffff;strokeWidth=2;verticalLabelPosition=bottom;verticalAlign=top;align=center;outlineConnect=0;" vertex="1" parent="1">
          <mxGeometry x="511" y="520" width="78" height="70" as="geometry" />
        </mxCell>
        <mxCell id="QjlA99lCkYBHLG3m_KXI-30" value="" style="endArrow=none;html=1;rounded=0;entryX=0.5;entryY=1;entryDx=0;entryDy=0;entryPerimeter=0;exitX=0.5;exitY=0;exitDx=0;exitDy=0;exitPerimeter=0;" edge="1" parent="1" source="QjlA99lCkYBHLG3m_KXI-2" target="1c7a67bf8fd3230f-46">
          <mxGeometry width="50" height="50" relative="1" as="geometry">
            <mxPoint x="520" y="310" as="sourcePoint" />
            <mxPoint x="570" y="260" as="targetPoint" />
          </mxGeometry>
        </mxCell>
        <mxCell id="QjlA99lCkYBHLG3m_KXI-31" value="" style="endArrow=none;html=1;rounded=0;entryX=0.5;entryY=1;entryDx=0;entryDy=0;entryPerimeter=0;" edge="1" parent="1" source="QjlA99lCkYBHLG3m_KXI-3" target="1c7a67bf8fd3230f-47">
          <mxGeometry width="50" height="50" relative="1" as="geometry">
            <mxPoint x="520" y="310" as="sourcePoint" />
            <mxPoint x="570" y="260" as="targetPoint" />
          </mxGeometry>
        </mxCell>
        <mxCell id="QjlA99lCkYBHLG3m_KXI-32" value="" style="endArrow=none;html=1;rounded=0;exitX=0.5;exitY=0;exitDx=0;exitDy=0;exitPerimeter=0;" edge="1" parent="1" source="QjlA99lCkYBHLG3m_KXI-8" target="QjlA99lCkYBHLG3m_KXI-3">
          <mxGeometry width="50" height="50" relative="1" as="geometry">
            <mxPoint x="520" y="310" as="sourcePoint" />
            <mxPoint x="570" y="260" as="targetPoint" />
          </mxGeometry>
        </mxCell>
        <mxCell id="QjlA99lCkYBHLG3m_KXI-33" value="" style="endArrow=none;html=1;rounded=0;" edge="1" parent="1" source="QjlA99lCkYBHLG3m_KXI-7" target="QjlA99lCkYBHLG3m_KXI-3">
          <mxGeometry width="50" height="50" relative="1" as="geometry">
            <mxPoint x="520" y="310" as="sourcePoint" />
            <mxPoint x="570" y="260" as="targetPoint" />
          </mxGeometry>
        </mxCell>
        <mxCell id="QjlA99lCkYBHLG3m_KXI-34" value="" style="endArrow=none;html=1;rounded=0;" edge="1" parent="1" source="QjlA99lCkYBHLG3m_KXI-6" target="QjlA99lCkYBHLG3m_KXI-3">
          <mxGeometry width="50" height="50" relative="1" as="geometry">
            <mxPoint x="520" y="310" as="sourcePoint" />
            <mxPoint x="570" y="260" as="targetPoint" />
          </mxGeometry>
        </mxCell>
        <mxCell id="QjlA99lCkYBHLG3m_KXI-35" value="" style="endArrow=none;html=1;rounded=0;entryX=0.5;entryY=0.98;entryDx=0;entryDy=0;entryPerimeter=0;" edge="1" parent="1" source="QjlA99lCkYBHLG3m_KXI-9" target="QjlA99lCkYBHLG3m_KXI-3">
          <mxGeometry width="50" height="50" relative="1" as="geometry">
            <mxPoint x="730" y="310" as="sourcePoint" />
            <mxPoint x="570" y="260" as="targetPoint" />
          </mxGeometry>
        </mxCell>
        <mxCell id="QjlA99lCkYBHLG3m_KXI-36" value="" style="endArrow=none;html=1;rounded=0;exitX=0.5;exitY=0;exitDx=0;exitDy=0;exitPerimeter=0;" edge="1" parent="1" source="QjlA99lCkYBHLG3m_KXI-6" target="QjlA99lCkYBHLG3m_KXI-2">
          <mxGeometry width="50" height="50" relative="1" as="geometry">
            <mxPoint x="520" y="310" as="sourcePoint" />
            <mxPoint x="570" y="260" as="targetPoint" />
          </mxGeometry>
        </mxCell>
        <mxCell id="QjlA99lCkYBHLG3m_KXI-37" value="" style="endArrow=none;html=1;rounded=0;" edge="1" parent="1" source="QjlA99lCkYBHLG3m_KXI-7" target="QjlA99lCkYBHLG3m_KXI-2">
          <mxGeometry width="50" height="50" relative="1" as="geometry">
            <mxPoint x="520" y="310" as="sourcePoint" />
            <mxPoint x="570" y="260" as="targetPoint" />
          </mxGeometry>
        </mxCell>
        <mxCell id="QjlA99lCkYBHLG3m_KXI-38" value="" style="endArrow=none;html=1;rounded=0;exitX=0.16;exitY=0.23;exitDx=0;exitDy=0;exitPerimeter=0;entryX=0.87;entryY=0.74;entryDx=0;entryDy=0;entryPerimeter=0;" edge="1" parent="1" source="QjlA99lCkYBHLG3m_KXI-8" target="QjlA99lCkYBHLG3m_KXI-2">
          <mxGeometry width="50" height="50" relative="1" as="geometry">
            <mxPoint x="520" y="310" as="sourcePoint" />
            <mxPoint x="570" y="260" as="targetPoint" />
          </mxGeometry>
        </mxCell>
        <mxCell id="QjlA99lCkYBHLG3m_KXI-39" value="" style="endArrow=none;html=1;rounded=0;entryX=0.98;entryY=0.5;entryDx=0;entryDy=0;entryPerimeter=0;exitX=0.16;exitY=0.23;exitDx=0;exitDy=0;exitPerimeter=0;" edge="1" parent="1" source="QjlA99lCkYBHLG3m_KXI-9" target="QjlA99lCkYBHLG3m_KXI-2">
          <mxGeometry width="50" height="50" relative="1" as="geometry">
            <mxPoint x="520" y="310" as="sourcePoint" />
            <mxPoint x="570" y="260" as="targetPoint" />
          </mxGeometry>
        </mxCell>
        <mxCell id="QjlA99lCkYBHLG3m_KXI-46" value="" style="endArrow=none;dashed=1;html=1;rounded=0;entryX=0;entryY=0.5;entryDx=0;entryDy=0;entryPerimeter=0;exitX=1;exitY=0.5;exitDx=0;exitDy=0;exitPerimeter=0;" edge="1" parent="1" source="1c7a67bf8fd3230f-46" target="1c7a67bf8fd3230f-47">
          <mxGeometry width="50" height="50" relative="1" as="geometry">
            <mxPoint x="520" y="210" as="sourcePoint" />
            <mxPoint x="570" y="160" as="targetPoint" />
          </mxGeometry>
        </mxCell>
        <mxCell id="QjlA99lCkYBHLG3m_KXI-47" value="" style="endArrow=none;html=1;rounded=0;exitX=0.5;exitY=0;exitDx=0;exitDy=0;exitPerimeter=0;" edge="1" parent="1" source="QjlA99lCkYBHLG3m_KXI-19" target="QjlA99lCkYBHLG3m_KXI-10">
          <mxGeometry width="50" height="50" relative="1" as="geometry">
            <mxPoint x="520" y="510" as="sourcePoint" />
            <mxPoint x="570" y="460" as="targetPoint" />
          </mxGeometry>
        </mxCell>
        <mxCell id="QjlA99lCkYBHLG3m_KXI-48" value="" style="endArrow=none;html=1;rounded=0;" edge="1" parent="1" source="QjlA99lCkYBHLG3m_KXI-20" target="QjlA99lCkYBHLG3m_KXI-11">
          <mxGeometry width="50" height="50" relative="1" as="geometry">
            <mxPoint x="520" y="510" as="sourcePoint" />
            <mxPoint x="570" y="460" as="targetPoint" />
          </mxGeometry>
        </mxCell>
        <mxCell id="QjlA99lCkYBHLG3m_KXI-49" value="" style="endArrow=none;html=1;rounded=0;entryX=0.5;entryY=0.98;entryDx=0;entryDy=0;entryPerimeter=0;" edge="1" parent="1" source="QjlA99lCkYBHLG3m_KXI-21" target="QjlA99lCkYBHLG3m_KXI-12">
          <mxGeometry width="50" height="50" relative="1" as="geometry">
            <mxPoint x="520" y="510" as="sourcePoint" />
            <mxPoint x="570" y="460" as="targetPoint" />
          </mxGeometry>
        </mxCell>
        <mxCell id="QjlA99lCkYBHLG3m_KXI-50" value="" style="endArrow=none;html=1;rounded=0;" edge="1" parent="1" source="QjlA99lCkYBHLG3m_KXI-15" target="QjlA99lCkYBHLG3m_KXI-8">
          <mxGeometry width="50" height="50" relative="1" as="geometry">
            <mxPoint x="520" y="510" as="sourcePoint" />
            <mxPoint x="727.4308755760369" y="465" as="targetPoint" />
          </mxGeometry>
        </mxCell>
        <mxCell id="QjlA99lCkYBHLG3m_KXI-51" value="" style="endArrow=none;html=1;rounded=0;entryX=0.87;entryY=0.74;entryDx=0;entryDy=0;entryPerimeter=0;" edge="1" parent="1" source="QjlA99lCkYBHLG3m_KXI-16" target="QjlA99lCkYBHLG3m_KXI-8">
          <mxGeometry width="50" height="50" relative="1" as="geometry">
            <mxPoint x="520" y="510" as="sourcePoint" />
            <mxPoint x="735" y="464.1" as="targetPoint" />
          </mxGeometry>
        </mxCell>
        <mxCell id="QjlA99lCkYBHLG3m_KXI-52" value="" style="endArrow=none;html=1;rounded=0;exitX=0.5;exitY=0;exitDx=0;exitDy=0;exitPerimeter=0;" edge="1" parent="1" source="QjlA99lCkYBHLG3m_KXI-18" target="QjlA99lCkYBHLG3m_KXI-9">
          <mxGeometry width="50" height="50" relative="1" as="geometry">
            <mxPoint x="520" y="510" as="sourcePoint" />
            <mxPoint x="909.7903225806451" y="465" as="targetPoint" />
          </mxGeometry>
        </mxCell>
        <mxCell id="QjlA99lCkYBHLG3m_KXI-53" value="VRRP&lt;div&gt;192.168.10.1&lt;/div&gt;&lt;div&gt;192.168.20.1&lt;/div&gt;&lt;div&gt;192.168.30.1&lt;/div&gt;&lt;div&gt;192.168.40.1&lt;/div&gt;&lt;div&gt;192.168.50.1&lt;/div&gt;&lt;div&gt;192.168.60.1&lt;/div&gt;" style="text;html=1;align=center;verticalAlign=middle;resizable=0;points=[];autosize=1;strokeColor=none;fillColor=none;" vertex="1" parent="1">
          <mxGeometry x="480" y="55" width="90" height="110" as="geometry" />
        </mxCell>
        <mxCell id="QjlA99lCkYBHLG3m_KXI-54" value="RT_CORE_LAN1" style="text;html=1;align=center;verticalAlign=middle;whiteSpace=wrap;rounded=0;" vertex="1" parent="1">
          <mxGeometry x="351" y="60" width="60" height="30" as="geometry" />
        </mxCell>
        <mxCell id="QjlA99lCkYBHLG3m_KXI-55" value="RT_CORE_LAN2" style="text;html=1;align=center;verticalAlign=middle;whiteSpace=wrap;rounded=0;" vertex="1" parent="1">
          <mxGeometry x="630" y="60" width="60" height="30" as="geometry" />
        </mxCell>
        <mxCell id="QjlA99lCkYBHLG3m_KXI-56" value="SW_CORE_LAN1" style="text;html=1;align=center;verticalAlign=middle;whiteSpace=wrap;rounded=0;" vertex="1" parent="1">
          <mxGeometry x="296" y="186" width="60" height="30" as="geometry" />
        </mxCell>
        <mxCell id="QjlA99lCkYBHLG3m_KXI-57" value="SW_CORE_LAN2" style="text;html=1;align=center;verticalAlign=middle;whiteSpace=wrap;rounded=0;" vertex="1" parent="1">
          <mxGeometry x="691" y="186" width="60" height="30" as="geometry" />
        </mxCell>
        <mxCell id="QjlA99lCkYBHLG3m_KXI-70" value="&lt;font style=&quot;font-size: 18px;&quot;&gt;STP&lt;/font&gt;" style="text;html=1;align=center;verticalAlign=middle;whiteSpace=wrap;rounded=0;" vertex="1" parent="1">
          <mxGeometry x="480" y="210" width="90" height="40" as="geometry" />
        </mxCell>
        <mxCell id="QjlA99lCkYBHLG3m_KXI-71" value="Vlan10" style="text;html=1;align=center;verticalAlign=middle;whiteSpace=wrap;rounded=0;" vertex="1" parent="1">
          <mxGeometry x="95" y="582" width="60" height="30" as="geometry" />
        </mxCell>
        <mxCell id="QjlA99lCkYBHLG3m_KXI-72" value="Vlan20" style="text;html=1;align=center;verticalAlign=middle;whiteSpace=wrap;rounded=0;" vertex="1" parent="1">
          <mxGeometry x="305" y="582" width="60" height="30" as="geometry" />
        </mxCell>
        <mxCell id="QjlA99lCkYBHLG3m_KXI-73" value="Vlan30" style="text;html=1;align=center;verticalAlign=middle;whiteSpace=wrap;rounded=0;" vertex="1" parent="1">
          <mxGeometry x="511" y="582" width="60" height="30" as="geometry" />
        </mxCell>
        <mxCell id="QjlA99lCkYBHLG3m_KXI-74" value="Vlan40" style="text;html=1;align=center;verticalAlign=middle;whiteSpace=wrap;rounded=0;" vertex="1" parent="1">
          <mxGeometry x="672.5" y="572" width="60" height="30" as="geometry" />
        </mxCell>
        <mxCell id="QjlA99lCkYBHLG3m_KXI-75" value="Vlan50" style="text;html=1;align=center;verticalAlign=middle;whiteSpace=wrap;rounded=0;" vertex="1" parent="1">
          <mxGeometry x="789.5" y="552" width="60" height="30" as="geometry" />
        </mxCell>
        <mxCell id="QjlA99lCkYBHLG3m_KXI-76" value="Vlan60" style="text;html=1;align=center;verticalAlign=middle;whiteSpace=wrap;rounded=0;" vertex="1" parent="1">
          <mxGeometry x="911.5" y="510" width="60" height="30" as="geometry" />
        </mxCell>
        <mxCell id="QjlA99lCkYBHLG3m_KXI-77" value="SW floor 1" style="text;html=1;align=center;verticalAlign=middle;whiteSpace=wrap;rounded=0;" vertex="1" parent="1">
          <mxGeometry x="95" y="397" width="60" height="30" as="geometry" />
        </mxCell>
        <mxCell id="QjlA99lCkYBHLG3m_KXI-78" value="SW floor 2" style="text;html=1;align=center;verticalAlign=middle;whiteSpace=wrap;rounded=0;" vertex="1" parent="1">
          <mxGeometry x="330" y="397" width="60" height="30" as="geometry" />
        </mxCell>
        <mxCell id="QjlA99lCkYBHLG3m_KXI-79" value="SW floor 3" style="text;html=1;align=center;verticalAlign=middle;whiteSpace=wrap;rounded=0;" vertex="1" parent="1">
          <mxGeometry x="535" y="397" width="60" height="30" as="geometry" />
        </mxCell>
        <mxCell id="QjlA99lCkYBHLG3m_KXI-80" value="SW SRV1" style="text;html=1;align=center;verticalAlign=middle;whiteSpace=wrap;rounded=0;" vertex="1" parent="1">
          <mxGeometry x="575" y="297" width="60" height="30" as="geometry" />
        </mxCell>
        <mxCell id="QjlA99lCkYBHLG3m_KXI-81" value="SW SRV2" style="text;html=1;align=center;verticalAlign=middle;whiteSpace=wrap;rounded=0;" vertex="1" parent="1">
          <mxGeometry x="743" y="290" width="60" height="30" as="geometry" />
        </mxCell>
        <mxCell id="QjlA99lCkYBHLG3m_KXI-82" value="SW_USERS_1" style="text;html=1;align=center;verticalAlign=middle;whiteSpace=wrap;rounded=0;" vertex="1" parent="1">
          <mxGeometry x="198" y="297" width="60" height="30" as="geometry" />
        </mxCell>
        <mxCell id="QjlA99lCkYBHLG3m_KXI-83" value="SW_USERS_2" style="text;html=1;align=center;verticalAlign=middle;whiteSpace=wrap;rounded=0;" vertex="1" parent="1">
          <mxGeometry x="397" y="299" width="60" height="30" as="geometry" />
        </mxCell>
      </root>
    </mxGraphModel>
  </diagram>
</mxfile>
